# xmcd
#
# Track frame offsets:
#	150
#	13140
#	29721
#	44186
#	61827
#	82711
#	101044
#	118736
#	135399
#	149947
#
# Disc length: 2232 seconds
#
# Revision: 0
# Processed by: cddbd v1.4PL0 Copyright (c) Steve Scherf et al.
# Submitted via: audiograbber 1.80.04
#
DISCID=9308b60a
DTITLE=Steve Wariner - I Am Ready
DYEAR=1991
DGENRE=Country
TTITLE0=On My Heart Again
TTITLE1=The Tips Of My Fingers
TTITLE2=When Will I Let Go
TTITLE3=Leave Him Out Of This
TTITLE4=Like A River To The Sea
TTITLE5=Everything's Gonna Be Alright
TTITLE6=A Woman Loves
TTITLE7=My, How The Time Don't Fly
TTITLE8=Gone Out Of My Mind
TTITLE9=Crash Course In The Blues
EXTD=
EXTT0=
EXTT1=
EXTT2=
EXTT3=
EXTT4=
EXTT5=
EXTT6=
EXTT7=
EXTT8=
EXTT9=
PLAYORDER=
